<svg width="18" height="18" viewBox="0 0 18 18" fill="none" xmlns="http://www.w3.org/2000/svg">
<path d="M16.875 1.13729C16.7594 1.02141 16.622 0.929477 16.4708 0.866751C16.3196 0.804024 16.1575 0.771736 15.9938 0.771736C15.8301 0.771736 15.668 0.804024 15.5168 0.866751C15.3655 0.929477 15.2282 1.02141 15.1125 1.13729L9.00003 7.23729L2.88754 1.12479C2.77181 1.00906 2.63442 0.917264 2.48321 0.854632C2.33201 0.792001 2.16995 0.759766 2.00629 0.759766C1.84262 0.759766 1.68056 0.792001 1.52936 0.854632C1.37815 0.917264 1.24076 1.00906 1.12504 1.12479C1.00931 1.24052 0.917508 1.37791 0.854877 1.52911C0.792245 1.68032 0.76001 1.84238 0.76001 2.00604C0.76001 2.1697 0.792245 2.33177 0.854877 2.48297C0.917508 2.63418 1.00931 2.77156 1.12504 2.88729L7.23753 8.99979L1.12504 15.1123C1.00931 15.228 0.917508 15.3654 0.854877 15.5166C0.792245 15.6678 0.76001 15.8299 0.76001 15.9935C0.76001 16.1572 0.792245 16.3193 0.854877 16.4705C0.917508 16.6217 1.00931 16.7591 1.12504 16.8748C1.24076 16.9905 1.37815 17.0823 1.52936 17.1449C1.68056 17.2076 1.84262 17.2398 2.00629 17.2398C2.16995 17.2398 2.33201 17.2076 2.48321 17.1449C2.63442 17.0823 2.77181 16.9905 2.88754 16.8748L9.00003 10.7623L15.1125 16.8748C15.2283 16.9905 15.3656 17.0823 15.5169 17.1449C15.6681 17.2076 15.8301 17.2398 15.9938 17.2398C16.1574 17.2398 16.3195 17.2076 16.4707 17.1449C16.6219 17.0823 16.7593 16.9905 16.875 16.8748C16.9908 16.7591 17.0826 16.6217 17.1452 16.4705C17.2078 16.3193 17.2401 16.1572 17.2401 15.9935C17.2401 15.8299 17.2078 15.6678 17.1452 15.5166C17.0826 15.3654 16.9908 15.228 16.875 15.1123L10.7625 8.99979L16.875 2.88729C17.35 2.41229 17.35 1.61229 16.875 1.13729Z" fill="white" style="fill:white;fill-opacity:1;"/>
</svg>
