<svg width="164" height="44" viewBox="0 0 164 44" fill="none" xmlns="http://www.w3.org/2000/svg">
<path d="M2.07928 2.10938H14.0093C17.8724 2.10938 20.5343 3.10704 22.2224 4.79664C23.6994 6.26096 24.4623 8.20802 24.4623 10.7505C24.4623 14.5802 22.4009 17.1388 19.2683 18.4583L25.2901 27.212H17.2231L12.1427 19.6007H9.07499V27.212H2.07928V2.10938ZM13.6847 14.1618C16.0545 14.1618 17.4341 13.0194 17.4341 11.1206C17.4341 9.15742 15.9895 8.14366 13.6522 8.14366H9.07499V14.1618H13.6847Z" fill="white" style="fill:white;fill:white;fill-opacity:1;"/>
<path d="M55.7565 2.02881H62.4925L73.2539 27.2923H65.755L63.9209 22.8028H54.1821L52.3641 27.2923H45.0114L55.7565 2.02881ZM61.8919 17.3961L59.0839 10.2676L56.2272 17.3961H61.8919Z" fill="#009EE2" style="fill:#009EE2;fill:color(display-p3 0.0000 0.6196 0.8863);fill-opacity:1;"/>
<path d="M92.4879 23.2534L96.3672 18.7478C98.8506 20.6627 101.61 21.6765 104.515 21.6765C106.382 21.6765 107.388 21.0489 107.388 19.9386C107.388 18.9248 106.56 18.3777 103.152 17.6053C97.7956 16.4307 93.6566 14.9502 93.6566 9.86535C93.6566 5.32757 97.3573 2.04492 103.379 2.04492C107.648 2.04492 110.992 3.15523 113.719 5.29539L110.229 10.0745C107.94 8.49758 105.424 7.66083 103.201 7.66083C101.529 7.66083 100.685 8.35276 100.685 9.30215C100.685 10.4125 101.561 10.9113 105.019 11.6676C110.797 12.8905 114.4 14.7089 114.4 19.3432C114.4 24.3315 110.326 27.2924 104.239 27.2924C99.8083 27.3084 95.5719 25.9407 92.4879 23.2534Z" fill="white" style="fill:white;fill:white;fill-opacity:1;"/>
<path d="M144.379 2.02881H151.132L161.877 27.2923H154.378L152.544 22.8028H142.805L140.987 27.2923H133.634L144.379 2.02881ZM150.515 17.3961L147.707 10.2676L144.866 17.3961H150.515Z" fill="white" style="fill:white;fill:white;fill-opacity:1;"/>
<path d="M161.958 35.0161H2.07928V41.9354H161.958V35.0161Z" fill="#009EE2" style="fill:#009EE2;fill:color(display-p3 0.0000 0.6196 0.8863);fill-opacity:1;"/>
</svg>
