<svg width="163" height="46" viewBox="0 0 163 46" fill="none" xmlns="http://www.w3.org/2000/svg">
<g clip-path="url(#clip0_1_63)">
<path d="M57.4992 14.4188L54.779 7.02295H53.5342L50.7217 14.3726H52.2432L52.8426 12.8009H55.3784L55.9316 14.3726H57.4992V14.4188ZM55.0095 11.6916H53.2575L54.0874 9.01058L55.0095 11.6916ZM59.3434 10.7671H61.2798V9.61149H58.0063V14.4188H59.3895V10.7671H59.3434ZM66.3975 12.2463V12.0614C66.3975 10.6284 65.7059 9.4266 64.1383 9.4266C62.5708 9.4266 61.8331 10.5822 61.8331 12.0151C61.8331 13.4481 62.7552 14.5112 64.2305 14.5112C65.3832 14.5112 66.167 13.6792 66.3514 13.217L65.291 12.7547C65.1526 13.0783 64.7838 13.4481 64.1844 13.4481C63.4929 13.4481 63.2162 12.7547 63.2162 12.1538L66.3975 12.2463ZM63.3084 11.368C63.3545 10.8595 63.6773 10.3973 64.2305 10.3973C64.7377 10.3973 65.0604 10.8595 65.1526 11.368H63.3084ZM71.5151 14.4188V9.61149H70.132V11.2293H68.5644V9.61149H67.1813V14.4188H68.5644V12.3849H70.132V14.4188H71.5151ZM74.9269 10.7671H76.264V9.61149H72.2067V10.7671H73.5438V14.4188H74.9269V10.7671ZM80.8745 9.93506C80.6901 9.79639 79.9985 9.4266 79.2608 9.4266C77.8315 9.4266 76.7711 10.5822 76.7711 12.0151C76.7711 13.4019 77.7854 14.5575 79.2608 14.5575C80.229 14.5575 80.9206 13.9565 81.105 13.7716L80.4134 12.8934C80.1829 13.1707 79.8141 13.4019 79.4452 13.4019C78.6614 13.4019 78.2004 12.7547 78.2004 12.0151C78.2004 11.3218 78.6614 10.5822 79.3991 10.5822C79.9063 10.5822 80.229 10.7671 80.3673 10.9058L80.8745 9.93506ZM84.1479 10.7671H85.485V9.61149H81.4277V10.7671H82.7648V14.4188H84.1479V10.7671ZM90.5565 12.9858C90.5565 12.2 90.0033 11.8765 89.6805 11.8302C89.9572 11.7378 90.2338 11.368 90.2338 10.9058C90.2338 10.3511 89.9111 9.65772 88.7584 9.65772H86.1766V14.465H88.9429C90.2799 14.4188 90.5565 13.5405 90.5565 12.9858ZM88.8046 10.952C88.8046 11.4142 88.5279 11.4142 88.113 11.4142H87.5136V10.4897H88.1591C88.3435 10.536 88.8046 10.4897 88.8046 10.952ZM89.1734 12.8472C89.1734 13.4019 88.6201 13.4019 88.3896 13.4019H87.5136V12.2463H88.3896C88.989 12.2925 89.1734 12.5236 89.1734 12.8472ZM93.5534 9.47282C92.078 9.47282 91.0176 10.536 91.0176 12.0151C91.0176 13.4943 92.0319 14.5575 93.5534 14.5575C95.0748 14.5575 96.0892 13.4943 96.0892 12.0151C96.0892 10.536 95.0748 9.47282 93.5534 9.47282ZM93.5534 10.6746C94.245 10.6746 94.706 11.368 94.706 12.0151C94.706 12.6623 94.2911 13.3556 93.5534 13.3556C92.8157 13.3556 92.4007 12.6623 92.4007 12.0151C92.4469 11.368 92.8618 10.6746 93.5534 10.6746ZM52.5659 20.0119H54.1335V23.6636H55.5167V18.8563H51.2289V23.6636H52.6121V20.0119H52.5659ZM57.8219 18.8563H56.4388V26.2059H57.8219V23.2013C58.0986 23.5711 58.6057 23.8022 59.1129 23.8022C60.5421 23.8022 61.3259 22.508 61.3259 21.2137C61.3259 19.9657 60.496 18.6714 59.159 18.6714C58.6518 18.6714 58.1447 18.9025 57.8219 19.2723V18.8563ZM58.7901 22.6004C58.0986 22.6004 57.6375 21.9071 57.6375 21.2599C57.6375 20.6128 58.0525 19.9194 58.7901 19.9194C59.5278 19.9194 59.9428 20.6128 59.9428 21.2599C59.9428 21.9071 59.5278 22.6004 58.7901 22.6004ZM66.3975 23.6636V18.8563H65.6598L63.4929 21.3062V18.8563H62.1558V23.6636H62.8935L65.0604 21.1675V23.6636H66.3975ZM71.7918 22.2306C71.7918 21.4448 71.2385 21.1213 70.9158 21.075C71.1924 20.9826 71.469 20.6128 71.469 20.1506C71.469 19.5959 71.1463 18.9025 69.9937 18.9025H67.4118V23.7098H70.1781C71.5151 23.6636 71.7918 22.7853 71.7918 22.2306ZM70.0398 20.1968C70.0398 20.659 69.7631 20.659 69.3482 20.659H68.7027V19.7345H69.3482C69.5787 19.7808 70.0398 19.7345 70.0398 20.1968ZM70.4086 22.092C70.4086 22.6466 69.8554 22.6466 69.6248 22.6466H68.7488V21.491H69.6248C70.2242 21.5373 70.4086 21.7684 70.4086 22.092ZM74.2353 21.3524V20.0119H75.2958V23.6636H76.6789V18.8563H72.8522V21.4448C72.8522 22.1844 72.76 22.508 72.0684 22.508H72.0223V23.6636H72.2067C73.8665 23.6636 74.2353 22.6466 74.2353 21.3524ZM82.0732 21.4448V21.2599C82.0732 19.827 81.3816 18.6252 79.8141 18.6252C78.2465 18.6252 77.5088 19.7808 77.5088 21.2137C77.5088 22.6929 78.4309 23.7098 79.9063 23.7098C81.0589 23.7098 81.8427 22.8778 82.0271 22.4155L80.9667 21.9533C80.8284 22.2769 80.4595 22.6466 79.8602 22.6466C79.1686 22.6466 78.892 21.9533 78.892 21.3524L82.0732 21.4448ZM78.9381 20.6128C78.9842 20.1043 79.3069 19.6421 79.8602 19.6421C80.3673 19.6421 80.6901 20.1043 80.7823 20.6128H78.9381ZM85.5311 18.8563V20.7052C85.2545 20.7515 84.9778 20.7515 84.7012 20.7515C84.4246 20.7515 84.0557 20.7515 84.0557 20.243V18.8563H82.6726V20.4741C82.6726 21.4911 83.2258 21.9533 84.2863 21.9533C84.4707 21.9533 85.1623 21.9071 85.485 21.8146V23.6636H86.8681V18.8563H85.5311ZM92.3085 21.4448V21.2599C92.3085 19.827 91.617 18.6252 90.0494 18.6252C88.4818 18.6252 87.7441 19.7808 87.7441 21.2137C87.7441 22.6466 88.6662 23.7098 90.1416 23.7098C91.2942 23.7098 92.078 22.8778 92.2624 22.4155L91.202 21.9533C91.0637 22.2769 90.6949 22.6466 90.0955 22.6466C89.4039 22.6466 89.1273 21.9533 89.1273 21.3524L92.3085 21.4448ZM89.1734 20.6128C89.2195 20.1043 89.5422 19.6421 90.0955 19.6421C90.6026 19.6421 90.9254 20.1043 91.0176 20.6128H89.1734ZM97.3801 23.6636V18.8563H95.9969V20.4741H94.4294V18.8563H93.0462V23.6636H94.4294V21.6297H95.9969V23.6636H97.3801ZM102.636 23.6636V18.8563H101.898L99.7315 21.3062V18.8563H98.3944V23.6636H99.1321L101.299 21.1675V23.6636H102.636ZM103.604 20.3817C103.604 20.9364 103.973 21.3986 104.388 21.5835C104.296 21.6297 104.158 21.7222 104.111 21.8146L103.927 22.2306C103.881 22.3693 103.789 22.508 103.512 22.508H103.374V23.6636H103.835C104.572 23.6636 104.895 23.34 105.08 22.8778L105.31 22.2769C105.402 22.0457 105.541 21.9533 105.771 21.9533H106.417V23.6636H107.8V18.8563H105.31C104.019 18.8563 103.604 19.6421 103.604 20.3817ZM106.417 20.9364H105.771C105.172 20.9364 104.987 20.659 104.987 20.3817C104.987 19.8732 105.541 19.8732 105.771 19.8732H106.417V20.9364ZM116.053 23.6636V18.8563H115.315L113.148 21.3062V18.8563H111.811V23.6636H112.549L114.716 21.1675V23.6636H116.053ZM121.309 23.6636V18.8563H119.925V20.4741H118.404V18.8563H117.021V23.6636H118.404V21.6297H119.972V23.6636H121.309ZM126.657 22.2306C126.657 21.4448 126.104 21.1213 125.781 21.075C126.057 20.9826 126.334 20.6128 126.334 20.1506C126.334 19.5959 126.011 18.9025 124.859 18.9025H122.277V23.7098H125.043C126.38 23.6636 126.657 22.7853 126.657 22.2306ZM124.951 20.1968C124.951 20.659 124.674 20.659 124.259 20.659H123.614V19.7345H124.259C124.444 19.7808 124.951 19.7345 124.951 20.1968ZM125.274 22.092C125.274 22.6466 124.72 22.6466 124.49 22.6466H123.614V21.491H124.49C125.135 21.5373 125.274 21.7684 125.274 22.092ZM131.774 21.4448V21.2599C131.774 19.827 131.083 18.6252 129.515 18.6252C127.948 18.6252 127.21 19.7808 127.21 21.2137C127.21 22.6929 128.132 23.7098 129.608 23.7098C130.76 23.7098 131.544 22.8778 131.728 22.4155L130.668 21.9533C130.53 22.2769 130.161 22.6466 129.561 22.6466C128.87 22.6466 128.593 21.9533 128.593 21.3524L131.774 21.4448ZM128.685 20.6128C128.732 20.1043 129.054 19.6421 129.608 19.6421C130.115 19.6421 130.437 20.1043 130.53 20.6128H128.685ZM136.523 19.1799C136.339 19.0412 135.647 18.6714 134.91 18.6714C133.48 18.6714 132.42 19.827 132.42 21.2599C132.42 22.6466 133.434 23.8022 134.91 23.8022C135.878 23.8022 136.569 23.2013 136.754 23.0164L136.062 22.1382C135.832 22.4155 135.463 22.6466 135.094 22.6466C134.31 22.6466 133.849 21.9995 133.849 21.2599C133.849 20.5666 134.31 19.827 135.048 19.827C135.555 19.827 135.878 20.0119 136.016 20.1506L136.523 19.1799ZM139.797 20.0119H141.134V18.8563H137.077V20.0119H138.414V23.6636H139.797V20.0119ZM146.113 23.6636V18.8563H145.375L143.209 21.3062V18.8563H141.872V23.6636H142.609L144.776 21.1675V23.6636H146.113ZM152.107 25.0503V22.508H151.369V18.8563H149.986V22.508H148.418V18.8563H147.035V23.6636H150.724V25.0503H152.107ZM156.994 23.6636V18.8563H156.256L154.089 21.3062V18.8563H152.752V23.6636H153.49L155.657 21.1675V23.6636H156.994ZM158.562 16.8687C158.746 17.6545 159.299 18.2091 160.221 18.2091C161.143 18.2091 161.743 17.6545 161.881 16.8687L160.959 16.6838C160.867 17.0535 160.636 17.3771 160.221 17.3771C159.806 17.3771 159.576 17.0535 159.484 16.6838L158.562 16.8687ZM162.25 23.6636V18.8563H161.512L159.345 21.3062V18.8563H158.008V23.6636H158.746L160.913 21.1675V23.6636H162.25ZM55.4706 32.8621V28.1011H54.7329L52.5659 30.5509V28.1011H51.2289V32.9084H51.9666L54.1335 30.4123V32.9084H55.4706V32.8621ZM60.8188 28.1011H59.4356V35.4507H60.8188V32.4461C61.0954 32.8159 61.6025 33.047 62.1097 33.047C63.539 33.047 64.3227 31.7528 64.3227 30.4585C64.3227 29.2105 63.4929 27.9162 62.1558 27.9162C61.6486 27.9162 61.1415 28.1473 60.8188 28.5171V28.1011ZM61.8331 31.8452C61.1415 31.8452 60.6804 31.1519 60.6804 30.5047C60.6804 29.8576 61.0954 29.1642 61.8331 29.1642C62.5246 29.1642 62.9857 29.8576 62.9857 30.5047C62.9857 31.1519 62.5246 31.8452 61.8331 31.8452ZM69.2099 32.8621V30.0425C69.2099 28.6558 68.4722 27.9162 66.9968 27.9162C66.3514 27.9162 65.7059 28.1473 65.3371 28.4246L65.7981 29.3029C66.0747 29.0718 66.3975 28.9331 66.9046 28.9331C67.5962 28.9331 67.9189 29.3491 67.9189 29.7651H67.3196C66.1208 29.7651 64.876 30.3198 64.876 31.4754C64.876 32.4924 65.5676 33.047 66.628 33.047C67.3196 33.047 67.7806 32.6772 67.9189 32.4461V32.9084H69.2099V32.8621ZM67.8267 30.9207C67.8267 31.4754 67.5501 32.0301 66.9968 32.0301C66.4897 32.0301 66.2131 31.7528 66.2131 31.383C66.2131 30.7821 66.9968 30.6434 67.5962 30.6434H67.8267V30.9207ZM74.0048 31.383C74.0048 30.8283 73.6821 30.4123 73.2671 30.2274C73.5899 30.0425 73.8665 29.7189 73.8665 29.2567C73.8665 28.3322 73.1749 27.9162 71.9762 27.9162C71.1463 27.9162 70.593 28.286 70.1781 28.702L70.8697 29.3953C71.0541 29.1642 71.3307 28.8869 71.7457 28.8869C72.1606 28.8869 72.3911 29.0256 72.3911 29.3491C72.3911 29.6727 72.1606 29.8576 71.6996 29.8576H71.3768V30.8283H71.884C72.3911 30.8283 72.5295 31.1056 72.5295 31.4292C72.5295 31.8452 72.0684 31.9839 71.6996 31.9839C71.2846 31.9839 70.7775 31.6141 70.6391 31.383L69.9015 32.1688C70.132 32.4924 70.7314 33.0933 71.884 33.0933C73.3132 33.047 74.0048 32.3537 74.0048 31.383ZM79.1225 31.4292C79.1225 30.6434 78.5692 30.3198 78.2465 30.2736C78.5231 30.1812 78.7997 29.8114 78.7997 29.3491C78.7997 28.7944 78.477 28.1011 77.3244 28.1011H74.7425V32.9084H77.5088C78.892 32.8621 79.1225 31.9839 79.1225 31.4292ZM77.4166 29.4416C77.4166 29.9038 77.14 29.9038 76.725 29.9038H76.0795V28.9793H76.725C76.9094 28.9793 77.4166 28.9793 77.4166 29.4416ZM77.7393 31.3368C77.7393 31.8914 77.1861 31.8914 76.9555 31.8914H76.0795V30.7358H76.9555C77.601 30.7821 77.7393 31.0132 77.7393 31.3368ZM84.1479 32.8621V28.1011H83.3641L81.1972 30.5509V28.1011H79.8602V32.9084H80.5978L82.7648 30.4123V32.9084H84.1479V32.8621ZM87.5136 29.2105H88.8507V28.0549H84.7934V29.2105H86.1305V32.8621H87.5136V29.2105ZM93.83 32.8621V28.1011H93.0923L90.9254 30.5509V28.1011H89.5883V32.9084H90.326L92.493 30.4123V32.9084H93.83V32.8621ZM94.7982 29.6265C94.7982 30.1812 95.1671 30.6434 95.582 30.8283C95.4898 30.8745 95.3515 30.967 95.3054 31.0594L95.1209 31.4754C95.0748 31.6141 94.9826 31.7528 94.706 31.7528H94.5677V32.9084H95.0287C95.7664 32.9084 96.0892 32.5848 96.2736 32.1226L96.5041 31.5217C96.5963 31.2905 96.7346 31.1981 96.9651 31.1981H97.6106V32.9084H98.9938V28.1011H96.5041C95.2132 28.1011 94.7982 28.8869 94.7982 29.6265ZM97.6106 30.1812H96.9651C96.3658 30.1812 96.1814 29.9038 96.1814 29.6265C96.1814 29.118 96.7346 29.118 96.9651 29.118H97.6106V30.1812ZM107.247 32.8621V28.1011H106.509L104.342 30.5509V28.1011H103.005V32.9084H103.743L105.91 30.4123V32.9084H107.247V32.8621ZM112.503 32.8621V28.1011H111.119V29.7189H109.552V28.1011H108.169V32.9084H109.552V30.8745H111.119V32.9084H112.503V32.8621ZM117.759 32.8621V28.1011H116.375V29.7189H114.808V28.1011H113.425V32.9084H114.808V30.8745H116.375V32.9084H117.759V32.8621ZM121.078 27.9162C119.603 27.9162 118.542 28.9793 118.542 30.4585C118.542 31.9377 119.557 33.0008 121.078 33.0008C122.6 33.0008 123.614 31.9377 123.614 30.4585C123.614 28.9793 122.6 27.9162 121.078 27.9162ZM121.078 29.118C121.77 29.118 122.231 29.8114 122.231 30.4585C122.231 31.1056 121.816 31.799 121.078 31.799C120.34 31.799 119.925 31.1056 119.925 30.4585C119.972 29.8114 120.387 29.118 121.078 29.118ZM128.778 31.4292C128.778 30.6434 128.224 30.3198 127.902 30.2736C128.178 30.1812 128.455 29.8114 128.455 29.3491C128.455 28.7944 128.132 28.1011 126.98 28.1011H124.398V32.9084H127.164C128.501 32.8621 128.778 31.9839 128.778 31.4292ZM127.072 29.4416C127.072 29.9038 126.795 29.9038 126.38 29.9038H125.781V28.9793H126.426C126.565 28.9793 127.072 28.9793 127.072 29.4416ZM127.395 31.3368C127.395 31.8914 126.841 31.8914 126.611 31.8914H125.781V30.7358H126.657C127.256 30.7821 127.395 31.0132 127.395 31.3368ZM133.757 32.8621V30.0425C133.757 28.6558 133.019 27.9162 131.544 27.9162C130.898 27.9162 130.253 28.1473 129.884 28.4246L130.345 29.3029C130.622 29.0718 130.945 28.9331 131.452 28.9331C132.143 28.9331 132.466 29.3491 132.466 29.7651H131.867C130.668 29.7651 129.423 30.3198 129.423 31.4754C129.423 32.4924 130.115 33.047 131.175 33.047C131.867 33.047 132.328 32.6772 132.466 32.4461V32.9084H133.757V32.8621ZM132.374 30.9207C132.374 31.4754 132.097 32.0301 131.544 32.0301C131.037 32.0301 130.76 31.7528 130.76 31.383C130.76 30.7821 131.544 30.6434 132.143 30.6434H132.374V30.9207ZM139.843 34.2951V31.7528H139.105V28.1011H137.722V31.7528H136.154V28.1011H134.771V32.9084H138.46V34.2951H139.843ZM144.684 32.8621V28.1011H143.946L141.779 30.5509V28.1011H140.442V32.9084H141.18L143.347 30.4123V32.9084H144.684V32.8621ZM146.251 26.1134C146.436 26.8993 146.989 27.4539 147.911 27.4539C148.833 27.4539 149.433 26.8993 149.571 26.1134L148.649 25.9286C148.557 26.2983 148.326 26.6219 147.911 26.6219C147.496 26.6219 147.266 26.2983 147.174 25.9286L146.251 26.1134ZM149.986 32.8621V28.1011H149.248L147.081 30.5509V28.1011H145.744V32.9084H146.482L148.649 30.4123V32.9084H149.986V32.8621Z" fill="white" style="fill:white;fill:white;fill-opacity:1;"/>
<path d="M52.1971 40.119L50.7217 42.7075H51.3672L52.5198 40.6737L53.6725 42.7075H54.3179L52.8426 40.119L54.1796 37.7153H53.5342L52.5198 39.6105L51.5055 37.7153H50.8601L52.1971 40.119ZM54.6407 41.783C54.6407 42.4302 55.1939 42.7537 55.8855 42.7537C56.3005 42.7537 56.6232 42.5688 56.8998 42.2453V42.6613H57.407V40.9048C57.407 39.9803 56.992 39.4718 55.9777 39.4718C55.5628 39.4718 55.1478 39.6105 54.9173 39.7954L55.1939 40.2114C55.3784 40.0728 55.7011 39.9803 56.0238 39.9803C56.7154 39.9803 56.8076 40.3963 56.8076 40.7661H56.2082C55.5628 40.7661 54.6407 40.951 54.6407 41.783ZM56.8998 41.4132C56.8998 41.9217 56.5771 42.3377 55.9316 42.3377C55.4245 42.3377 55.1939 42.1528 55.1939 41.8293C55.1939 41.2746 55.9316 41.2746 56.4849 41.2746H56.8998V41.4132ZM59.9889 38.5474C60.4038 38.5011 60.9571 38.2238 61.1415 37.9927L60.7727 37.7153C60.6804 37.8078 60.3116 38.0389 59.8506 38.0851C59.2973 38.1776 58.744 38.5474 58.4674 39.0558C58.2369 39.5181 58.0986 40.119 58.0986 40.951C58.0986 42.0604 58.8362 42.8 59.7583 42.8C60.6804 42.8 61.372 42.0604 61.372 41.1821C61.372 40.2576 60.6804 39.5181 59.8506 39.5181C59.2973 39.5181 58.8362 39.7954 58.6057 40.119C58.6518 39.8879 58.7901 39.3794 58.9746 39.1483C59.2051 38.8247 59.5739 38.5936 59.9889 38.5474ZM60.8649 41.1359C60.8649 41.783 60.4038 42.2915 59.7583 42.2915C59.1129 42.2915 58.6518 41.783 58.6518 41.1359C58.6518 40.4888 59.1129 39.9803 59.7583 39.9803C60.4038 39.9803 60.8649 40.535 60.8649 41.1359ZM61.9253 41.783C61.9253 42.4302 62.4785 42.7537 63.1701 42.7537C63.5851 42.7537 63.9078 42.5688 64.1844 42.2453V42.6613H64.6916V40.9048C64.6916 39.9803 64.2766 39.4718 63.2623 39.4718C62.8474 39.4718 62.4324 39.6105 62.2019 39.7954L62.4785 40.2114C62.663 40.0728 62.9857 39.9803 63.3084 39.9803C64 39.9803 64.0922 40.3963 64.0922 40.7661H63.539C62.8013 40.7661 61.9253 40.951 61.9253 41.783ZM64.1383 41.4132C64.1383 41.9217 63.8156 42.3377 63.1701 42.3377C62.663 42.3377 62.4324 42.1528 62.4324 41.8293C62.4324 41.2746 63.1701 41.2746 63.7234 41.2746H64.1383V41.4132ZM67.1352 39.9803C67.7806 39.9803 68.1956 40.4888 68.1956 41.0897C68.1956 41.7368 67.8267 42.2453 67.1813 42.2453C66.5358 42.2453 66.1669 41.6906 66.1669 41.0435C66.1208 40.535 66.4897 39.9803 67.1352 39.9803ZM66.1208 39.6105H65.6137V44.464H66.1208V42.2915C66.3514 42.6151 66.7663 42.8 67.1813 42.8C68.1034 42.8 68.6566 42.0604 68.6566 41.1821C68.6566 40.3039 68.1034 39.5181 67.1813 39.5181C66.7663 39.5181 66.3514 39.703 66.1208 40.0265V39.6105ZM70.8236 42.8C71.7457 42.8 72.4372 42.0604 72.4372 41.1821C72.4372 40.2576 71.6996 39.5181 70.8236 39.5181C69.9015 39.5181 69.2099 40.2576 69.2099 41.1821C69.1638 42.0604 69.9015 42.8 70.8236 42.8ZM70.8236 39.9803C71.469 39.9803 71.9301 40.4888 71.9301 41.1359C71.9301 41.783 71.469 42.2915 70.8236 42.2915C70.1781 42.2915 69.717 41.783 69.717 41.1359C69.717 40.535 70.132 39.9803 70.8236 39.9803ZM73.1288 42.7075H74.7425C75.6185 42.7075 75.7568 42.1066 75.7568 41.7368C75.7568 41.367 75.4802 41.0435 75.1574 40.9972C75.4341 40.9048 75.5724 40.6737 75.5724 40.3963C75.5724 40.0265 75.388 39.6105 74.6503 39.6105H73.1749L73.1288 42.7075ZM73.6821 40.8123V40.0728H74.4198C74.6042 40.0728 75.0191 40.0728 75.0191 40.4425C75.0191 40.7661 74.7886 40.8123 74.4198 40.8123H73.6821ZM73.6821 42.2453V41.2746H74.6042C75.1113 41.2746 75.2496 41.5057 75.2496 41.7368C75.2496 42.1066 74.973 42.1991 74.6042 42.1991H73.6821V42.2453ZM78.9842 39.9803C78.8458 39.7954 78.4309 39.5181 77.8776 39.5181C76.9555 39.5181 76.2179 40.2114 76.2179 41.1821C76.2179 42.1066 76.9094 42.8462 77.8776 42.8462C78.477 42.8462 78.892 42.5226 79.1225 42.2453L78.7536 41.9217C78.6153 42.1066 78.3387 42.3377 77.8315 42.3377C77.1861 42.3377 76.7711 41.783 76.7711 41.1821C76.7711 40.5812 77.2322 40.0265 77.8776 40.0265C78.2465 40.0265 78.5231 40.2114 78.6614 40.3501L78.9842 39.9803ZM81.3355 40.9972C81.4277 40.951 81.5199 40.8586 81.5661 40.7199L81.7044 40.3039C81.7505 40.119 81.8888 40.0728 82.1193 40.0728H82.1654V39.5643H82.0271C81.7044 39.5643 81.4277 39.703 81.3355 40.0265L81.0589 40.6274C81.0128 40.7199 80.9206 40.8123 80.8284 40.8123H80.1368V39.6105H79.6296V42.7075H80.1368V41.2746H80.8284C80.9667 41.2746 81.0589 41.367 81.105 41.5057L81.3355 42.1991C81.4277 42.5689 81.7044 42.7075 82.1654 42.7075H82.3037V42.1991H82.2576C82.0271 42.1991 81.8888 42.1528 81.7966 41.9217L81.5661 41.2284C81.5661 41.1359 81.4277 41.0435 81.3355 40.9972ZM84.3324 42.8C85.2545 42.8 85.946 42.0604 85.946 41.1821C85.946 40.2576 85.2084 39.5181 84.3324 39.5181C83.4103 39.5181 82.7187 40.2576 82.7187 41.1821C82.7187 42.0604 83.4103 42.8 84.3324 42.8ZM84.3324 39.9803C84.9778 39.9803 85.4389 40.4888 85.4389 41.1359C85.4389 41.783 84.9778 42.2915 84.3324 42.2915C83.6869 42.2915 83.2258 41.783 83.2258 41.1359C83.2258 40.535 83.6869 39.9803 84.3324 39.9803ZM87.237 40.0728H88.8046V39.5643H86.7298V42.6613H87.237V40.0728ZM90.6949 42.8C91.617 42.8 92.3085 42.0604 92.3085 41.1821C92.3085 40.2576 91.5709 39.5181 90.6949 39.5181C89.7728 39.5181 89.0812 40.2576 89.0812 41.1821C89.0351 42.0604 89.7728 42.8 90.6949 42.8ZM90.6949 39.9803C91.3403 39.9803 91.8014 40.4888 91.8014 41.1359C91.8014 41.783 91.3403 42.2915 90.6949 42.2915C90.0494 42.2915 89.5883 41.783 89.5883 41.1359C89.5883 40.535 90.0033 39.9803 90.6949 39.9803ZM96.6885 40.9972C96.7807 40.951 96.8729 40.8586 96.919 40.7199L97.0574 40.3039C97.1035 40.119 97.2418 40.0728 97.4723 40.0728H97.5184V39.5643H97.3801C97.0574 39.5643 96.7807 39.703 96.6885 40.0265L96.458 40.6274C96.4119 40.7199 96.3197 40.8123 96.2275 40.8123H95.5359V39.6105H95.0287V42.7075H95.5359V41.2746H96.2275C96.3658 41.2746 96.458 41.367 96.5041 41.5057L96.7346 42.1991C96.8268 42.5689 97.1035 42.7075 97.5645 42.7075H97.7028V42.1991H97.6567C97.4262 42.1991 97.2879 42.1528 97.1957 41.9217L96.9651 41.2284C96.9651 41.1359 96.8268 41.0435 96.6885 40.9972ZM99.8698 39.9803C100.515 39.9803 100.93 40.4888 100.93 41.0897C100.93 41.7368 100.561 42.2453 99.9159 42.2453C99.2704 42.2453 98.9016 41.6906 98.9016 41.0435C98.8555 40.535 99.2243 39.9803 99.8698 39.9803ZM98.8555 39.6105H98.3483V44.464H98.8555V42.2915C99.086 42.6151 99.5009 42.8 99.9159 42.8C100.838 42.8 101.391 42.0604 101.391 41.1821C101.391 40.3039 100.838 39.5181 99.9159 39.5181C99.5009 39.5181 99.086 39.703 98.8555 40.0265V39.6105ZM101.991 41.783C101.991 42.4302 102.544 42.7537 103.235 42.7537C103.65 42.7537 103.973 42.5688 104.25 42.2453V42.6613H104.757V40.9048C104.757 39.9803 104.342 39.4718 103.328 39.4718C102.913 39.4718 102.498 39.6105 102.267 39.7954L102.544 40.2114C102.728 40.0728 103.051 39.9803 103.374 39.9803C104.065 39.9803 104.158 40.3963 104.158 40.7661H103.558C102.867 40.7661 101.991 40.951 101.991 41.783ZM104.204 41.4132C104.204 41.9217 103.881 42.3377 103.235 42.3377C102.728 42.3377 102.498 42.1528 102.498 41.8293C102.498 41.2746 103.235 41.2746 103.789 41.2746H104.204V41.4132ZM107.569 41.0435H106.97C106.324 41.0435 106.14 40.8123 106.14 40.535C106.14 40.0728 106.739 40.0265 106.97 40.0265H107.569V41.0435ZM106.278 41.3208C106.186 41.367 106.094 41.4133 106.048 41.5057L105.863 41.9217C105.771 42.1066 105.725 42.1991 105.495 42.1991H105.448V42.7075H105.587C106.048 42.7075 106.186 42.5226 106.324 42.1991L106.555 41.6444C106.601 41.5057 106.739 41.4132 106.878 41.4132H107.477V42.7075H107.984V39.6105H106.601C105.817 39.6105 105.495 40.119 105.495 40.5812C105.633 40.951 105.956 41.2746 106.278 41.3208Z" fill="#E1E1E1" style="fill:#E1E1E1;fill:color(display-p3 0.8833 0.8833 0.8833);fill-opacity:1;"/>
<path d="M27.3004 3.74072L3.1413 3.92562L11.2558 10.4894L27.3004 3.74072Z" fill="#2983B1" style="fill:#2983B1;fill:color(display-p3 0.1608 0.5137 0.6941);fill-opacity:1;"/>
<path fill-rule="evenodd" clip-rule="evenodd" d="M38.965 0.875L0.375 17.0996L17.6644 22.2305L38.965 0.875Z" fill="#6EAD78" style="fill:#6EAD78;fill:color(display-p3 0.4314 0.6784 0.4706);fill-opacity:1;"/>
<path d="M29.6056 26.6216L25.2256 37.0682L29.4673 42.384L29.6056 26.6216Z" fill="#34994A" style="fill:#34994A;fill:color(display-p3 0.2039 0.6000 0.2902);fill-opacity:1;"/>
<path fill-rule="evenodd" clip-rule="evenodd" d="M35.9681 6.56055L14.6675 27.916L19.7852 45.25L35.9681 6.56055Z" fill="#00A6E8" style="fill:#00A6E8;fill:color(display-p3 0.0000 0.6510 0.9098);fill-opacity:1;"/>
</g>
<defs>
<clipPath id="clip0_1_63">
<rect width="161.875" height="44.375" fill="white" style="fill:white;fill:white;fill-opacity:1;" transform="translate(0.375 0.875)"/>
</clipPath>
</defs>
</svg>
